<?xml version="1.0" encoding="utf-8" standalone="no"?>
<!DOCTYPE svg PUBLIC "-//W3C//DTD SVG 1.1//EN" "http://www.w3.org/Graphics/SVG/1.1/DTD/svg11.dtd">
<svg width="3000px" height="3000px" version="1.1" xmlns="http://www.w3.org/2000/svg" xmlns:xlink="http://www.w3.org/1999/xlink">
<g id="ideograms">
<path d="M1517.016,525.148 A975.000,975.000 40.000 0,1 2323.598,978.166 L2386.952,938.025 A1050.000,1050.000 0.000 0,0 1518.325,450.160 Z" style="stroke-width:1.0;stroke:rgb(0,0,0);stroke-linecap:round;fill:none;" />
<path d="M1517.016,525.148 A975.000,975.000 40.000 0,1 1580.583,528.336 L1586.781,453.592 A1050.000,1050.000 0.000 0,0 1518.325,450.160 Z" style="stroke-width:1.0;stroke:rgb(0,0,0);stroke-linecap:round;fill:rgb(102,0,0);" />
<path d="M1581.223,528.389 A975.000,975.000 40.000 0,1 1644.442,535.759 L1655.553,461.586 A1050.000,1050.000 0.000 0,0 1587.471,453.650 Z" style="stroke-width:1.0;stroke:rgb(0,0,0);stroke-linecap:round;fill:rgb(153,51,0);" />
<path d="M1645.078,535.854 A975.000,975.000 40.000 0,1 1707.673,547.374 L1723.648,474.095 A1050.000,1050.000 0.000 0,0 1656.237,461.689 Z" style="stroke-width:1.0;stroke:rgb(0,0,0);stroke-linecap:round;fill:rgb(153,102,0);" />
<path d="M1708.301,547.511 A975.000,975.000 40.000 0,1 1770.001,563.130 L1790.770,491.064 A1050.000,1050.000 0.000 0,0 1724.324,474.242 Z" style="stroke-width:1.0;stroke:rgb(0,0,0);stroke-linecap:round;fill:rgb(204,0,51);" />
<path d="M1770.619,563.309 A975.000,975.000 40.000 0,1 1831.155,582.961 L1856.629,512.419 A1050.000,1050.000 0.000 0,0 1791.436,491.256 Z" style="stroke-width:1.0;stroke:rgb(0,0,0);stroke-linecap:round;fill:rgb(204,153,0);" />
<path d="M1831.760,583.179 A975.000,975.000 40.000 0,1 1890.870,606.778 L1920.937,538.068 A1050.000,1050.000 0.000 0,0 1857.280,512.655 Z" style="stroke-width:1.0;stroke:rgb(0,0,0);stroke-linecap:round;fill:rgb(255,0,0);" />
<path d="M1891.459,607.036 A975.000,975.000 40.000 0,1 1948.885,634.479 L1983.414,567.900 A1050.000,1050.000 0.000 0,0 1921.571,538.346 Z" style="stroke-width:1.0;stroke:rgb(0,0,0);stroke-linecap:round;fill:rgb(255,51,102);" />
<path d="M1949.455,634.775 A975.000,975.000 40.000 0,1 2004.948,665.942 L2043.790,601.784 A1050.000,1050.000 0.000 0,0 1984.029,568.219 Z" style="stroke-width:1.0;stroke:rgb(0,0,0);stroke-linecap:round;fill:rgb(255,102,0);" />
<path d="M2005.498,666.275 A975.000,975.000 40.000 0,1 2058.816,701.032 L2101.802,639.573 A1050.000,1050.000 0.000 0,0 2044.383,602.143 Z" style="stroke-width:1.0;stroke:rgb(0,0,0);stroke-linecap:round;fill:rgb(255,102,102);" />
<path d="M2059.343,701.401 A975.000,975.000 40.000 0,1 2110.255,739.596 L2157.197,681.103 A1050.000,1050.000 0.000 0,0 2102.369,639.970 Z" style="stroke-width:1.0;stroke:rgb(0,0,0);stroke-linecap:round;fill:rgb(255,153,51);" />
<path d="M2110.756,739.999 A975.000,975.000 40.000 0,1 2159.040,781.466 L2209.735,726.194 A1050.000,1050.000 0.000 0,0 2157.737,681.537 Z" style="stroke-width:1.0;stroke:rgb(0,0,0);stroke-linecap:round;fill:rgb(255,153,153);" />
<path d="M2159.514,781.901 A975.000,975.000 40.000 0,1 2204.960,826.460 L2259.188,774.649 A1050.000,1050.000 0.000 0,0 2210.246,726.662 Z" style="stroke-width:1.0;stroke:rgb(0,0,0);stroke-linecap:round;fill:rgb(255,204,153);" />
<path d="M2205.404,826.925 A975.000,975.000 40.000 0,1 2247.815,874.382 L2305.339,826.257 A1050.000,1050.000 0.000 0,0 2259.666,775.150 Z" style="stroke-width:1.0;stroke:rgb(0,0,0);stroke-linecap:round;fill:rgb(255,204,204);" />
<path d="M2248.227,874.875 A975.000,975.000 40.000 0,1 2287.418,925.024 L2347.989,880.795 A1050.000,1050.000 0.000 0,0 2305.783,826.789 Z" style="stroke-width:1.0;stroke:rgb(0,0,0);stroke-linecap:round;fill:rgb(255,255,51);" />
<path d="M2287.797,925.543 A975.000,975.000 40.000 0,1 2323.598,978.166 L2386.952,938.025 A1050.000,1050.000 0.000 0,0 2348.397,881.355 Z" style="stroke-width:1.0;stroke:rgb(0,0,0);stroke-linecap:round;fill:rgb(255,255,153);" />
<text x="2136.6" y="366.5" font-size="62.4px" font-family="CMUBright-Roman" style="text-anchor:middle;fill:rgb(0,0,0);" transform="rotate(389.3,2136.6,366.5)" >FRONTAL</text>
<path d="M1517.016,525.148 A975.000,975.000 40.000 0,1 2323.598,978.166 L2386.952,938.025 A1050.000,1050.000 0.000 0,0 1518.325,450.160 Z" style="stroke-width:1.0;stroke:rgb(0,0,0);stroke-linecap:round;fill:none;" />
<path d="M2338.700,1002.801 A975.000,975.000 40.000 0,1 2419.855,1176.749 L2490.613,1151.884 A1050.000,1050.000 0.000 0,0 2403.216,964.555 Z" style="stroke-width:1.0;stroke:rgb(0,0,0);stroke-linecap:round;fill:none;" />
<path d="M2338.700,1002.801 A975.000,975.000 40.000 0,1 2369.352,1058.580 L2436.226,1024.625 A1050.000,1050.000 0.000 0,0 2403.216,964.555 Z" style="stroke-width:1.0;stroke:rgb(0,0,0);stroke-linecap:round;fill:rgb(0,255,204);" />
<path d="M2369.643,1059.154 A975.000,975.000 40.000 0,1 2396.553,1116.832 L2465.518,1087.357 A1050.000,1050.000 0.000 0,0 2436.539,1025.243 Z" style="stroke-width:1.0;stroke:rgb(0,0,0);stroke-linecap:round;fill:rgb(102,255,255);" />
<path d="M2396.805,1117.423 A975.000,975.000 40.000 0,1 2419.855,1176.749 L2490.613,1151.884 A1050.000,1050.000 0.000 0,0 2465.790,1087.994 Z" style="stroke-width:1.0;stroke:rgb(0,0,0);stroke-linecap:round;fill:rgb(0,255,255);" />
<text x="2678.1" y="950.4" font-size="62.4px" font-family="CMUBright-Roman" style="text-anchor:middle;fill:rgb(0,0,0);" transform="rotate(425.0,2678.1,950.4)" >CINGULATE</text>
<path d="M2338.700,1002.801 A975.000,975.000 40.000 0,1 2419.855,1176.749 L2490.613,1151.884 A1050.000,1050.000 0.000 0,0 2403.216,964.555 Z" style="stroke-width:1.0;stroke:rgb(0,0,0);stroke-linecap:round;fill:none;" />
<path d="M2429.030,1204.149 A975.000,975.000 40.000 0,1 2415.709,1834.818 L2486.148,1860.573 A1050.000,1050.000 0.000 0,0 2500.494,1181.392 Z" style="stroke-width:1.0;stroke:rgb(0,0,0);stroke-linecap:round;fill:none;" />
<path d="M2429.030,1204.149 A975.000,975.000 40.000 0,1 2446.353,1265.393 L2519.150,1247.346 A1050.000,1050.000 0.000 0,0 2500.494,1181.392 Z" style="stroke-width:1.0;stroke:rgb(0,0,0);stroke-linecap:round;fill:rgb(102,0,102);" />
<path d="M2446.508,1266.017 A975.000,975.000 40.000 0,1 2459.757,1328.269 L2533.584,1315.059 A1050.000,1050.000 0.000 0,0 2519.316,1248.018 Z" style="stroke-width:1.0;stroke:rgb(0,0,0);stroke-linecap:round;fill:rgb(153,0,153);" />
<path d="M2459.870,1328.902 A975.000,975.000 40.000 0,1 2468.988,1391.892 L2543.525,1383.576 A1050.000,1050.000 0.000 0,0 2533.706,1315.741 Z" style="stroke-width:1.0;stroke:rgb(0,0,0);stroke-linecap:round;fill:rgb(153,0,204);" />
<path d="M2469.059,1392.531 A975.000,975.000 40.000 0,1 2474.006,1455.985 L2548.930,1452.599 A1050.000,1050.000 0.000 0,0 2543.602,1384.264 Z" style="stroke-width:1.0;stroke:rgb(0,0,0);stroke-linecap:round;fill:rgb(51,51,255);" />
<path d="M2474.035,1456.627 A975.000,975.000 40.000 0,1 2474.789,1520.269 L2549.773,1521.828 A1050.000,1050.000 0.000 0,0 2548.961,1453.291 Z" style="stroke-width:1.0;stroke:rgb(0,0,0);stroke-linecap:round;fill:rgb(153,51,255);" />
<path d="M2474.776,1520.912 A975.000,975.000 40.000 0,1 2471.334,1584.465 L2546.052,1590.963 A1050.000,1050.000 0.000 0,0 2549.758,1522.521 Z" style="stroke-width:1.0;stroke:rgb(0,0,0);stroke-linecap:round;fill:rgb(204,153,255);" />
<path d="M2471.279,1585.106 A975.000,975.000 40.000 0,1 2463.656,1648.294 L2537.784,1659.701 A1050.000,1050.000 0.000 0,0 2545.992,1591.652 Z" style="stroke-width:1.0;stroke:rgb(0,0,0);stroke-linecap:round;fill:rgb(255,0,255);" />
<path d="M2463.558,1648.930 A975.000,975.000 40.000 0,1 2451.789,1711.478 L2525.003,1727.746 A1050.000,1050.000 0.000 0,0 2537.678,1660.386 Z" style="stroke-width:1.0;stroke:rgb(0,0,0);stroke-linecap:round;fill:rgb(255,102,204);" />
<path d="M2451.649,1712.106 A975.000,975.000 40.000 0,1 2435.783,1773.743 L2507.766,1794.800 A1050.000,1050.000 0.000 0,0 2524.853,1728.422 Z" style="stroke-width:1.0;stroke:rgb(0,0,0);stroke-linecap:round;fill:rgb(255,153,255);" />
<path d="M2435.602,1774.360 A975.000,975.000 40.000 0,1 2415.709,1834.818 L2486.148,1860.573 A1050.000,1050.000 0.000 0,0 2507.572,1795.465 Z" style="stroke-width:1.0;stroke:rgb(0,0,0);stroke-linecap:round;fill:rgb(255,204,255);" />
<text x="2847.7" y="1528.5" font-size="62.4px" font-family="CMUBright-Roman" style="text-anchor:middle;fill:rgb(0,0,0);" transform="rotate(-88.8,2847.7,1528.5)" >TEMPORAL</text>
<path d="M2429.030,1204.149 A975.000,975.000 40.000 0,1 2415.709,1834.818 L2486.148,1860.573 A1050.000,1050.000 0.000 0,0 2500.494,1181.392 Z" style="stroke-width:1.0;stroke:rgb(0,0,0);stroke-linecap:round;fill:none;" />
<path d="M2405.385,1861.806 A975.000,975.000 40.000 0,1 2196.416,2182.371 L2249.986,2234.861 A1050.000,1050.000 0.000 0,0 2475.030,1889.637 Z" style="stroke-width:1.0;stroke:rgb(0,0,0);stroke-linecap:round;fill:none;" />
<path d="M2405.385,1861.806 A975.000,975.000 40.000 0,1 2379.850,1920.106 L2447.531,1952.421 A1050.000,1050.000 0.000 0,0 2475.030,1889.637 Z" style="stroke-width:1.0;stroke:rgb(0,0,0);stroke-linecap:round;fill:rgb(102,102,255);" />
<path d="M2379.573,1920.686 A975.000,975.000 40.000 0,1 2350.252,1977.176 L2415.656,2013.882 A1050.000,1050.000 0.000 0,0 2447.232,1953.046 Z" style="stroke-width:1.0;stroke:rgb(0,0,0);stroke-linecap:round;fill:rgb(102,153,255);" />
<path d="M2349.937,1977.737 A975.000,975.000 40.000 0,1 2316.957,2032.172 L2379.800,2073.108 A1050.000,1050.000 0.000 0,0 2415.317,2014.485 Z" style="stroke-width:1.0;stroke:rgb(0,0,0);stroke-linecap:round;fill:rgb(102,204,255);" />
<path d="M2316.606,2032.710 A975.000,975.000 40.000 0,1 2280.110,2084.853 L2340.118,2129.842 A1050.000,1050.000 0.000 0,0 2379.422,2073.688 Z" style="stroke-width:1.0;stroke:rgb(0,0,0);stroke-linecap:round;fill:rgb(153,153,255);" />
<path d="M2279.724,2085.368 A975.000,975.000 40.000 0,1 2239.871,2134.993 L2296.784,2183.838 A1050.000,1050.000 0.000 0,0 2339.703,2130.396 Z" style="stroke-width:1.0;stroke:rgb(0,0,0);stroke-linecap:round;fill:rgb(153,204,255);" />
<path d="M2239.452,2135.480 A975.000,975.000 40.000 0,1 2196.416,2182.371 L2249.986,2234.861 A1050.000,1050.000 0.000 0,0 2296.333,2184.363 Z" style="stroke-width:1.0;stroke:rgb(0,0,0);stroke-linecap:round;fill:rgb(204,204,255);" />
<text x="2629.3" y="2236.1" font-size="62.4px" font-family="CMUBright-Roman" style="text-anchor:middle;fill:rgb(0,0,0);" transform="rotate(-56.9,2629.3,2236.1)" >OCCIPITAL</text>
<path d="M2405.385,1861.806 A975.000,975.000 40.000 0,1 2196.416,2182.371 L2249.986,2234.861 A1050.000,1050.000 0.000 0,0 2475.030,1889.637 Z" style="stroke-width:1.0;stroke:rgb(0,0,0);stroke-linecap:round;fill:none;" />
<path d="M2175.889,2202.708 A975.000,975.000 40.000 0,1 1792.749,2430.012 L1815.268,2501.552 A1050.000,1050.000 0.000 0,0 2227.881,2256.763 Z" style="stroke-width:1.0;stroke:rgb(0,0,0);stroke-linecap:round;fill:none;" />
<path d="M2175.889,2202.708 A975.000,975.000 40.000 0,1 2128.602,2245.308 L2176.956,2302.640 A1050.000,1050.000 0.000 0,0 2227.881,2256.763 Z" style="stroke-width:1.0;stroke:rgb(0,0,0);stroke-linecap:round;fill:rgb(51,255,51);" />
<path d="M2128.110,2245.723 A975.000,975.000 40.000 0,1 2078.118,2285.114 L2122.589,2345.508 A1050.000,1050.000 0.000 0,0 2176.426,2303.086 Z" style="stroke-width:1.0;stroke:rgb(0,0,0);stroke-linecap:round;fill:rgb(102,153,0);" />
<path d="M2077.600,2285.495 A975.000,975.000 40.000 0,1 2025.121,2321.506 L2065.515,2384.699 A1050.000,1050.000 0.000 0,0 2122.031,2345.918 Z" style="stroke-width:1.0;stroke:rgb(0,0,0);stroke-linecap:round;fill:rgb(153,204,0);" />
<path d="M2024.579,2321.852 A975.000,975.000 40.000 0,1 1969.841,2354.327 L2005.983,2420.044 A1050.000,1050.000 0.000 0,0 2064.932,2385.072 Z" style="stroke-width:1.0;stroke:rgb(0,0,0);stroke-linecap:round;fill:rgb(153,255,0);" />
<path d="M1969.278,2354.637 A975.000,975.000 40.000 0,1 1912.518,2383.433 L1944.250,2451.389 A1050.000,1050.000 0.000 0,0 2005.376,2420.378 Z" style="stroke-width:1.0;stroke:rgb(0,0,0);stroke-linecap:round;fill:rgb(204,255,102);" />
<path d="M1911.935,2383.705 A975.000,975.000 40.000 0,1 1853.402,2408.698 L1880.587,2478.598 A1050.000,1050.000 0.000 0,0 1943.623,2451.682 Z" style="stroke-width:1.0;stroke:rgb(0,0,0);stroke-linecap:round;fill:rgb(204,255,153);" />
<path d="M1852.802,2408.931 A975.000,975.000 40.000 0,1 1792.749,2430.012 L1815.268,2501.552 A1050.000,1050.000 0.000 0,0 1879.941,2478.849 Z" style="stroke-width:1.0;stroke:rgb(0,0,0);stroke-linecap:round;fill:rgb(204,255,204);" />
<text x="2186.8" y="2657.6" font-size="62.4px" font-family="CMUBright-Roman" style="text-anchor:middle;fill:rgb(0,0,0);" transform="rotate(-30.7,2186.8,2657.6)" >PARIETAL</text>
<path d="M2175.889,2202.708 A975.000,975.000 40.000 0,1 1792.749,2430.012 L1815.268,2501.552 A1050.000,1050.000 0.000 0,0 2227.881,2256.763 Z" style="stroke-width:1.0;stroke:rgb(0,0,0);stroke-linecap:round;fill:none;" />
<path d="M1765.061,2438.279 A975.000,975.000 40.000 0,1 1511.879,2474.928 L1512.793,2549.922 A1050.000,1050.000 0.000 0,0 1785.450,2510.454 Z" style="stroke-width:1.0;stroke:rgb(0,0,0);stroke-linecap:round;fill:none;" />
<path d="M1765.061,2438.279 A975.000,975.000 40.000 0,1 1703.280,2453.574 L1718.916,2526.925 A1050.000,1050.000 0.000 0,0 1785.450,2510.454 Z" style="stroke-width:1.0;stroke:rgb(0,0,0);stroke-linecap:round;fill:rgb(32,32,32);" />
<path d="M1702.651,2453.707 A975.000,975.000 40.000 0,1 1639.996,2464.897 L1650.764,2539.120 A1050.000,1050.000 0.000 0,0 1718.239,2527.069 Z" style="stroke-width:1.0;stroke:rgb(0,0,0);stroke-linecap:round;fill:rgb(64,64,64);" />
<path d="M1639.359,2464.989 A975.000,975.000 40.000 0,1 1576.103,2472.025 L1581.957,2546.797 A1050.000,1050.000 0.000 0,0 1650.079,2539.219 Z" style="stroke-width:1.0;stroke:rgb(0,0,0);stroke-linecap:round;fill:rgb(96,96,96);" />
<path d="M1575.462,2472.075 A975.000,975.000 40.000 0,1 1511.879,2474.928 L1512.793,2549.922 A1050.000,1050.000 0.000 0,0 1581.267,2546.850 Z" style="stroke-width:1.0;stroke:rgb(0,0,0);stroke-linecap:round;fill:rgb(128,128,128);" />
<text x="1693.1" y="2834.1" font-size="62.4px" font-family="CMUBright-Roman" style="text-anchor:middle;fill:rgb(0,0,0);" transform="rotate(-8.2,1693.1,2834.1)" >BG</text>
<path d="M1765.061,2438.279 A975.000,975.000 40.000 0,1 1511.879,2474.928 L1512.793,2549.922 A1050.000,1050.000 0.000 0,0 1785.450,2510.454 Z" style="stroke-width:1.0;stroke:rgb(0,0,0);stroke-linecap:round;fill:none;" />
<path d="M1482.984,2474.852 A975.000,975.000 40.000 0,1 1229.999,2436.870 L1209.230,2508.936 A1050.000,1050.000 0.000 0,0 1481.675,2549.840 Z" style="stroke-width:1.0;stroke:rgb(0,0,0);stroke-linecap:round;fill:none;" />
<path d="M1291.699,2452.489 A975.000,975.000 40.000 0,1 1229.999,2436.870 L1209.230,2508.936 A1050.000,1050.000 0.000 0,0 1275.676,2525.758 Z" style="stroke-width:1.0;stroke:rgb(0,0,0);stroke-linecap:round;fill:rgb(32,32,32);" />
<path d="M1354.922,2464.146 A975.000,975.000 40.000 0,1 1292.327,2452.626 L1276.352,2525.905 A1050.000,1050.000 0.000 0,0 1343.763,2538.311 Z" style="stroke-width:1.0;stroke:rgb(0,0,0);stroke-linecap:round;fill:rgb(64,64,64);" />
<path d="M1418.777,2471.611 A975.000,975.000 40.000 0,1 1355.558,2464.241 L1344.447,2538.414 A1050.000,1050.000 0.000 0,0 1412.529,2546.350 Z" style="stroke-width:1.0;stroke:rgb(0,0,0);stroke-linecap:round;fill:rgb(96,96,96);" />
<path d="M1482.984,2474.852 A975.000,975.000 40.000 0,1 1419.417,2471.664 L1413.219,2546.408 A1050.000,1050.000 0.000 0,0 1481.675,2549.840 Z" style="stroke-width:1.0;stroke:rgb(0,0,0);stroke-linecap:round;fill:rgb(128,128,128);" />
<text x="1299.9" y="2833.1" font-size="62.4px" font-family="CMUBright-Roman" style="text-anchor:middle;fill:rgb(0,0,0);" transform="rotate(8.5,1299.9,2833.1)" >BG</text>
<path d="M1482.984,2474.852 A975.000,975.000 40.000 0,1 1229.999,2436.870 L1209.230,2508.936 A1050.000,1050.000 0.000 0,0 1481.675,2549.840 Z" style="stroke-width:1.0;stroke:rgb(0,0,0);stroke-linecap:round;fill:none;" />
<path d="M1202.355,2428.457 A975.000,975.000 40.000 0,1 820.418,2199.137 L768.142,2252.917 A1050.000,1050.000 0.000 0,0 1179.459,2499.877 Z" style="stroke-width:1.0;stroke:rgb(0,0,0);stroke-linecap:round;fill:none;" />
<path d="M867.480,2241.986 A975.000,975.000 40.000 0,1 820.418,2199.137 L768.142,2252.917 A1050.000,1050.000 0.000 0,0 818.825,2299.062 Z" style="stroke-width:1.0;stroke:rgb(0,0,0);stroke-linecap:round;fill:rgb(51,255,51);" />
<path d="M917.753,2282.057 A975.000,975.000 40.000 0,1 867.969,2242.403 L819.352,2299.511 A1050.000,1050.000 0.000 0,0 872.965,2342.215 Z" style="stroke-width:1.0;stroke:rgb(0,0,0);stroke-linecap:round;fill:rgb(102,153,0);" />
<path d="M970.558,2318.728 A975.000,975.000 40.000 0,1 918.269,2282.441 L873.520,2342.629 A1050.000,1050.000 0.000 0,0 929.831,2381.707 Z" style="stroke-width:1.0;stroke:rgb(0,0,0);stroke-linecap:round;fill:rgb(153,204,0);" />
<path d="M1025.664,2351.839 A975.000,975.000 40.000 0,1 971.098,2319.077 L930.413,2382.083 A1050.000,1050.000 0.000 0,0 989.177,2417.366 Z" style="stroke-width:1.0;stroke:rgb(0,0,0);stroke-linecap:round;fill:rgb(153,255,0);" />
<path d="M1082.833,2381.247 A975.000,975.000 40.000 0,1 1026.226,2352.152 L989.782,2417.702 A1050.000,1050.000 0.000 0,0 1050.743,2449.035 Z" style="stroke-width:1.0;stroke:rgb(0,0,0);stroke-linecap:round;fill:rgb(204,255,102);" />
<path d="M1141.815,2406.823 A975.000,975.000 40.000 0,1 1083.414,2381.522 L1051.369,2449.331 A1050.000,1050.000 0.000 0,0 1114.263,2476.579 Z" style="stroke-width:1.0;stroke:rgb(0,0,0);stroke-linecap:round;fill:rgb(204,255,153);" />
<path d="M1202.355,2428.457 A975.000,975.000 40.000 0,1 1142.413,2407.059 L1114.907,2476.833 A1050.000,1050.000 0.000 0,0 1179.459,2499.877 Z" style="stroke-width:1.0;stroke:rgb(0,0,0);stroke-linecap:round;fill:rgb(204,255,204);" />
<text x="807.1" y="2654.0" font-size="62.4px" font-family="CMUBright-Roman" style="text-anchor:middle;fill:rgb(0,0,0);" transform="rotate(31.0,807.1,2654.0)" >PARIETAL</text>
<path d="M1202.355,2428.457 A975.000,975.000 40.000 0,1 820.418,2199.137 L768.142,2252.917 A1050.000,1050.000 0.000 0,0 1179.459,2499.877 Z" style="stroke-width:1.0;stroke:rgb(0,0,0);stroke-linecap:round;fill:none;" />
<path d="M799.999,2178.692 A975.000,975.000 40.000 0,1 592.722,1857.031 L522.931,1884.494 A1050.000,1050.000 0.000 0,0 746.152,2230.899 Z" style="stroke-width:1.0;stroke:rgb(0,0,0);stroke-linecap:round;fill:none;" />
<path d="M617.949,1915.464 A975.000,975.000 40.000 0,1 592.722,1857.031 L522.931,1884.494 A1050.000,1050.000 0.000 0,0 550.098,1947.423 Z" style="stroke-width:1.0;stroke:rgb(0,0,0);stroke-linecap:round;fill:rgb(102,102,255);" />
<path d="M647.246,1972.689 A975.000,975.000 40.000 0,1 618.223,1916.046 L550.394,1948.049 A1050.000,1050.000 0.000 0,0 581.649,2009.050 Z" style="stroke-width:1.0;stroke:rgb(0,0,0);stroke-linecap:round;fill:rgb(102,153,255);" />
<path d="M680.251,2027.860 A975.000,975.000 40.000 0,1 647.558,1973.252 L581.985,2009.656 A1050.000,1050.000 0.000 0,0 617.193,2068.464 Z" style="stroke-width:1.0;stroke:rgb(0,0,0);stroke-linecap:round;fill:rgb(102,204,255);" />
<path d="M716.819,2080.735 A975.000,975.000 40.000 0,1 680.599,2028.400 L617.568,2069.046 A1050.000,1050.000 0.000 0,0 656.575,2125.407 Z" style="stroke-width:1.0;stroke:rgb(0,0,0);stroke-linecap:round;fill:rgb(153,153,255);" />
<path d="M756.793,2131.085 A975.000,975.000 40.000 0,1 717.203,2081.251 L656.987,2125.963 A1050.000,1050.000 0.000 0,0 699.624,2179.630 Z" style="stroke-width:1.0;stroke:rgb(0,0,0);stroke-linecap:round;fill:rgb(153,204,255);" />
<path d="M799.999,2178.692 A975.000,975.000 40.000 0,1 757.210,2131.575 L700.072,2180.158 A1050.000,1050.000 0.000 0,0 746.152,2230.899 Z" style="stroke-width:1.0;stroke:rgb(0,0,0);stroke-linecap:round;fill:rgb(204,204,255);" />
<text x="366.9" y="2230.2" font-size="62.4px" font-family="CMUBright-Roman" style="text-anchor:middle;fill:rgb(0,0,0);" transform="rotate(57.2,366.9,2230.2)" >OCCIPITAL</text>
<path d="M799.999,2178.692 A975.000,975.000 40.000 0,1 592.722,1857.031 L522.931,1884.494 A1050.000,1050.000 0.000 0,0 746.152,2230.899 Z" style="stroke-width:1.0;stroke:rgb(0,0,0);stroke-linecap:round;fill:none;" />
<path d="M582.540,1829.988 A975.000,975.000 40.000 0,1 572.541,1199.258 L501.198,1176.124 A1050.000,1050.000 0.000 0,0 511.966,1855.372 Z" style="stroke-width:1.0;stroke:rgb(0,0,0);stroke-linecap:round;fill:none;" />
<path d="M554.896,1260.410 A975.000,975.000 40.000 0,1 572.541,1199.258 L501.198,1176.124 A1050.000,1050.000 0.000 0,0 482.196,1241.980 Z" style="stroke-width:1.0;stroke:rgb(0,0,0);stroke-linecap:round;fill:rgb(102,0,102);" />
<path d="M541.161,1323.215 A975.000,975.000 40.000 0,1 554.738,1261.033 L482.026,1242.651 A1050.000,1050.000 0.000 0,0 467.404,1309.616 Z" style="stroke-width:1.0;stroke:rgb(0,0,0);stroke-linecap:round;fill:rgb(153,0,153);" />
<path d="M531.595,1386.788 A975.000,975.000 40.000 0,1 541.045,1323.847 L467.279,1310.297 A1050.000,1050.000 0.000 0,0 457.102,1378.079 Z" style="stroke-width:1.0;stroke:rgb(0,0,0);stroke-linecap:round;fill:rgb(153,0,204);" />
<path d="M526.239,1450.854 A975.000,975.000 40.000 0,1 531.521,1387.427 L457.022,1378.767 A1050.000,1050.000 0.000 0,0 451.335,1447.073 Z" style="stroke-width:1.0;stroke:rgb(0,0,0);stroke-linecap:round;fill:rgb(51,51,255);" />
<path d="M525.117,1515.133 A975.000,975.000 40.000 0,1 526.207,1451.496 L451.300,1447.765 A1050.000,1050.000 0.000 0,0 450.126,1516.297 Z" style="stroke-width:1.0;stroke:rgb(0,0,0);stroke-linecap:round;fill:rgb(153,51,255);" />
<path d="M528.234,1579.346 A975.000,975.000 40.000 0,1 525.128,1515.776 L450.137,1516.989 A1050.000,1050.000 0.000 0,0 453.483,1585.450 Z" style="stroke-width:1.0;stroke:rgb(0,0,0);stroke-linecap:round;fill:rgb(204,153,255);" />
<path d="M535.576,1643.215 A975.000,975.000 40.000 0,1 528.287,1579.987 L453.539,1586.140 A1050.000,1050.000 0.000 0,0 461.389,1654.231 Z" style="stroke-width:1.0;stroke:rgb(0,0,0);stroke-linecap:round;fill:rgb(255,0,255);" />
<path d="M547.110,1706.460 A975.000,975.000 40.000 0,1 535.670,1643.851 L461.491,1654.916 A1050.000,1050.000 0.000 0,0 473.811,1722.342 Z" style="stroke-width:1.0;stroke:rgb(0,0,0);stroke-linecap:round;fill:rgb(255,102,204);" />
<path d="M562.788,1768.809 A975.000,975.000 40.000 0,1 547.247,1707.089 L473.958,1723.019 A1050.000,1050.000 0.000 0,0 490.694,1789.486 Z" style="stroke-width:1.0;stroke:rgb(0,0,0);stroke-linecap:round;fill:rgb(255,153,255);" />
<path d="M582.540,1829.988 A975.000,975.000 40.000 0,1 562.965,1769.427 L490.886,1790.152 A1050.000,1050.000 0.000 0,0 511.966,1855.372 Z" style="stroke-width:1.0;stroke:rgb(0,0,0);stroke-linecap:round;fill:rgb(255,204,255);" />
<text x="152.2" y="1521.4" font-size="62.4px" font-family="CMUBright-Roman" style="text-anchor:middle;fill:rgb(0,0,0);" transform="rotate(89.1,152.2,1521.4)" >TEMPORAL</text>
<path d="M582.540,1829.988 A975.000,975.000 40.000 0,1 572.541,1199.258 L501.198,1176.124 A1050.000,1050.000 0.000 0,0 511.966,1855.372 Z" style="stroke-width:1.0;stroke:rgb(0,0,0);stroke-linecap:round;fill:none;" />
<path d="M581.861,1171.907 A975.000,975.000 40.000 0,1 663.931,998.389 L599.618,959.804 A1050.000,1050.000 0.000 0,0 511.235,1146.669 Z" style="stroke-width:1.0;stroke:rgb(0,0,0);stroke-linecap:round;fill:none;" />
<path d="M632.985,1054.006 A975.000,975.000 40.000 0,1 663.931,998.389 L599.618,959.804 A1050.000,1050.000 0.000 0,0 566.292,1019.699 Z" style="stroke-width:1.0;stroke:rgb(0,0,0);stroke-linecap:round;fill:rgb(0,255,204);" />
<path d="M605.478,1112.113 A975.000,975.000 40.000 0,1 632.691,1054.578 L565.975,1020.315 A1050.000,1050.000 0.000 0,0 536.669,1082.276 Z" style="stroke-width:1.0;stroke:rgb(0,0,0);stroke-linecap:round;fill:rgb(102,255,255);" />
<path d="M581.861,1171.907 A975.000,975.000 40.000 0,1 605.223,1112.703 L536.394,1082.911 A1050.000,1050.000 0.000 0,0 511.235,1146.669 Z" style="stroke-width:1.0;stroke:rgb(0,0,0);stroke-linecap:round;fill:rgb(0,255,255);" />
<text x="324.8" y="944.2" font-size="62.4px" font-family="CMUBright-Roman" style="text-anchor:middle;fill:rgb(0,0,0);" transform="rotate(-64.7,324.8,944.2)" >CINGULATE</text>
<path d="M581.861,1171.907 A975.000,975.000 40.000 0,1 663.931,998.389 L599.618,959.804 A1050.000,1050.000 0.000 0,0 511.235,1146.669 Z" style="stroke-width:1.0;stroke:rgb(0,0,0);stroke-linecap:round;fill:none;" />
<path d="M679.162,973.834 A975.000,975.000 40.000 0,1 1488.121,525.072 L1487.207,450.078 A1050.000,1050.000 0.000 0,0 616.021,933.360 Z" style="stroke-width:1.0;stroke:rgb(0,0,0);stroke-linecap:round;fill:none;" />
<path d="M1424.538,527.925 A975.000,975.000 40.000 0,1 1488.121,525.072 L1487.207,450.078 A1050.000,1050.000 0.000 0,0 1418.733,453.150 Z" style="stroke-width:1.0;stroke:rgb(0,0,0);stroke-linecap:round;fill:rgb(102,0,0);" />
<path d="M1360.641,535.011 A975.000,975.000 40.000 0,1 1423.897,527.975 L1418.043,453.203 A1050.000,1050.000 0.000 0,0 1349.921,460.781 Z" style="stroke-width:1.0;stroke:rgb(0,0,0);stroke-linecap:round;fill:rgb(153,51,0);" />
<path d="M1297.349,546.293 A975.000,975.000 40.000 0,1 1360.004,535.103 L1349.236,460.880 A1050.000,1050.000 0.000 0,0 1281.761,472.931 Z" style="stroke-width:1.0;stroke:rgb(0,0,0);stroke-linecap:round;fill:rgb(153,102,0);" />
<path d="M1234.939,561.721 A975.000,975.000 40.000 0,1 1296.720,546.426 L1281.084,473.075 A1050.000,1050.000 0.000 0,0 1214.550,489.546 Z" style="stroke-width:1.0;stroke:rgb(0,0,0);stroke-linecap:round;fill:rgb(204,0,51);" />
<path d="M1173.681,581.229 A975.000,975.000 40.000 0,1 1234.320,561.896 L1213.883,489.734 A1050.000,1050.000 0.000 0,0 1148.580,510.554 Z" style="stroke-width:1.0;stroke:rgb(0,0,0);stroke-linecap:round;fill:rgb(204,153,0);" />
<path d="M1113.842,604.731 A975.000,975.000 40.000 0,1 1173.075,581.444 L1147.927,510.786 A1050.000,1050.000 0.000 0,0 1084.138,535.864 Z" style="stroke-width:1.0;stroke:rgb(0,0,0);stroke-linecap:round;fill:rgb(255,0,0);" />
<path d="M1055.682,632.125 A975.000,975.000 40.000 0,1 1113.252,604.986 L1083.502,536.138 A1050.000,1050.000 0.000 0,0 1021.503,565.366 Z" style="stroke-width:1.0;stroke:rgb(0,0,0);stroke-linecap:round;fill:rgb(255,51,102);" />
<path d="M999.453,663.293 A975.000,975.000 40.000 0,1 1055.110,632.419 L1020.887,565.682 A1050.000,1050.000 0.000 0,0 960.950,598.931 Z" style="stroke-width:1.0;stroke:rgb(0,0,0);stroke-linecap:round;fill:rgb(255,102,0);" />
<path d="M945.401,698.099 A975.000,975.000 40.000 0,1 998.902,663.624 L960.356,599.287 A1050.000,1050.000 0.000 0,0 902.740,636.414 Z" style="stroke-width:1.0;stroke:rgb(0,0,0);stroke-linecap:round;fill:rgb(255,102,102);" />
<path d="M893.760,736.391 A975.000,975.000 40.000 0,1 944.872,698.465 L902.170,636.808 A1050.000,1050.000 0.000 0,0 847.126,677.652 Z" style="stroke-width:1.0;stroke:rgb(0,0,0);stroke-linecap:round;fill:rgb(255,153,51);" />
<path d="M844.755,778.003 A975.000,975.000 40.000 0,1 893.257,736.791 L846.584,678.083 A1050.000,1050.000 0.000 0,0 794.352,722.465 Z" style="stroke-width:1.0;stroke:rgb(0,0,0);stroke-linecap:round;fill:rgb(255,153,153);" />
<path d="M798.599,822.755 A975.000,975.000 40.000 0,1 844.279,778.436 L793.839,722.931 A1050.000,1050.000 0.000 0,0 744.645,770.659 Z" style="stroke-width:1.0;stroke:rgb(0,0,0);stroke-linecap:round;fill:rgb(255,204,153);" />
<path d="M755.492,870.450 A975.000,975.000 40.000 0,1 798.152,823.217 L744.164,771.157 A1050.000,1050.000 0.000 0,0 698.222,822.023 Z" style="stroke-width:1.0;stroke:rgb(0,0,0);stroke-linecap:round;fill:rgb(255,204,204);" />
<path d="M715.622,920.883 A975.000,975.000 40.000 0,1 755.077,870.942 L697.775,822.552 A1050.000,1050.000 0.000 0,0 655.285,876.336 Z" style="stroke-width:1.0;stroke:rgb(0,0,0);stroke-linecap:round;fill:rgb(255,255,51);" />
<path d="M679.162,973.834 A975.000,975.000 40.000 0,1 715.240,921.401 L654.874,876.893 A1050.000,1050.000 0.000 0,0 616.021,933.360 Z" style="stroke-width:1.0;stroke:rgb(0,0,0);stroke-linecap:round;fill:rgb(255,255,153);" />
<text x="869.4" y="363.2" font-size="62.4px" font-family="CMUBright-Roman" style="text-anchor:middle;fill:rgb(0,0,0);" transform="rotate(-29.0,869.4,363.2)" >FRONTAL</text>
<path d="M679.162,973.834 A975.000,975.000 40.000 0,1 1488.121,525.072 L1487.207,450.078 A1050.000,1050.000 0.000 0,0 616.021,933.360 Z" style="stroke-width:1.0;stroke:rgb(0,0,0);stroke-linecap:round;fill:none;" />
</g>
<g id="track_0">
<path d="M 1612.9,531.6 L 1610.0,548.3 1604.8,567.5 1597.5,589.0 1587.9,612.4 1576.1,637.4 1562.2,663.9 1546.2,691.4 1528.1,719.9 1508.1,749.0 1486.1,778.5 1462.2,808.3 1436.6,838.0 1409.2,867.6 1380.2,896.8 1349.8,925.6 1317.9,953.6 1284.8,980.9 1250.5,1007.2 1215.1,1032.5 1178.9,1056.5 1142.0,1079.3 1104.5,1100.8 1066.5,1120.8 1028.3,1139.4 990.1,1156.4 951.9,1171.8 914.0,1185.5 876.7,1197.7 840.0,1208.2 804.3,1217.1 769.7,1224.3 736.5,1230.0 704.8,1234.1 675.1,1236.7 647.4,1237.9 622.2,1237.7 599.5,1236.2 579.8,1233.5 563.2,1229.7  " style="stroke-opacity: 1.000000; stroke-width: 5.0; stroke: rgb(251,106,74); fill: none"  />
<path d="M 696.8,947.3 L 715.0,960.6 735.6,977.2 758.4,996.8 783.3,1019.3 810.0,1044.7 838.3,1072.8 868.2,1103.4 899.3,1136.5 931.5,1171.8 964.7,1209.2 998.7,1248.5 1033.3,1289.7 1068.4,1332.5 1103.8,1376.8 1139.4,1422.4 1175.1,1469.2 1210.6,1517.0 1245.9,1565.6 1280.8,1614.9 1315.3,1664.6 1349.1,1714.7 1382.1,1764.8 1414.3,1814.9 1445.6,1864.8 1475.7,1914.2 1504.7,1962.9 1532.4,2010.9 1558.8,2057.8 1583.6,2103.4 1606.9,2147.7 1628.6,2190.3 1648.6,2231.0 1666.7,2269.7 1683.0,2306.2 1697.4,2340.1 1709.7,2371.3 1720.1,2399.6 1728.3,2424.7 1734.3,2446.4  " style="stroke-opacity: 1.000000; stroke-width: 9.0; stroke: rgb(222,45,38); fill: none"  />
</g>
<g id="plot0">
<g id="plot0-axis">
</g>
<text x="705.0" y="798.8" font-size="31.2px" font-family="CMUBright-Roman" style="text-anchor:end;fill:rgb(0,0,0);" transform="rotate(42.1,705.0,798.8)" >FMidOrb2</text>
<text x="2298.7" y="803.0" font-size="31.2px" font-family="CMUBright-Roman" style="text-anchor:start;fill:rgb(0,0,0);" transform="rotate(318.2,2298.7,803.0)" >FMidOrb2</text>
<text x="966.8" y="2416.2" font-size="31.2px" font-family="CMUBright-Roman" style="text-anchor:end;fill:rgb(0,0,0);" transform="rotate(-59.0,966.8,2416.2)" >SupraMar</text>
<text x="2028.3" y="2419.0" font-size="31.2px" font-family="CMUBright-Roman" style="text-anchor:start;fill:rgb(0,0,0);" transform="rotate(59.3,2028.3,2419.0)" >SupraMar</text>
<text x="751.6" y="749.4" font-size="31.2px" font-family="CMUBright-Roman" style="text-anchor:end;fill:rgb(0,0,0);" transform="rotate(45.9,751.6,749.4)" >FSupMed</text>
<text x="2252.4" y="753.3" font-size="31.2px" font-family="CMUBright-Roman" style="text-anchor:start;fill:rgb(0,0,0);" transform="rotate(314.4,2252.4,753.3)" >FSupMed</text>
<text x="856.8" y="657.5" font-size="31.2px" font-family="CMUBright-Roman" style="text-anchor:end;fill:rgb(0,0,0);" transform="rotate(53.4,856.8,657.5)" >SuppMot</text>
<text x="2147.7" y="660.9" font-size="31.2px" font-family="CMUBright-Roman" style="text-anchor:start;fill:rgb(0,0,0);" transform="rotate(306.9,2147.7,660.9)" >SuppMot</text>
<text x="1299.4" y="459.2" font-size="31.2px" font-family="CMUBright-Roman" style="text-anchor:end;fill:rgb(0,0,0);" transform="rotate(79.9,1299.4,459.2)" >FSupOrb</text>
<text x="1706.1" y="460.2" font-size="31.2px" font-family="CMUBright-Roman" style="text-anchor:start;fill:rgb(0,0,0);" transform="rotate(280.4,1706.1,460.2)" >FSupOrb</text>
<text x="1166.1" y="494.0" font-size="31.2px" font-family="CMUBright-Roman" style="text-anchor:end;fill:rgb(0,0,0);" transform="rotate(72.3,1166.1,494.0)" >FMidOrb</text>
<text x="1839.2" y="495.7" font-size="31.2px" font-family="CMUBright-Roman" style="text-anchor:start;fill:rgb(0,0,0);" transform="rotate(288.0,1839.2,495.7)" >FMidOrb</text>
<text x="1098.7" y="518.9" font-size="31.2px" font-family="CMUBright-Roman" style="text-anchor:end;fill:rgb(0,0,0);" transform="rotate(68.5,1098.7,518.9)" >FInfOper</text>
<text x="1906.5" y="521.0" font-size="31.2px" font-family="CMUBright-Roman" style="text-anchor:start;fill:rgb(0,0,0);" transform="rotate(291.8,1906.5,521.0)" >FInfOper</text>
<text x="1155.4" y="2502.4" font-size="31.2px" font-family="CMUBright-Roman" style="text-anchor:end;fill:rgb(0,0,0);" transform="rotate(-70.4,1155.4,2502.4)" >ParCLob</text>
<text x="1839.3" y="2504.2" font-size="31.2px" font-family="CMUBright-Roman" style="text-anchor:start;fill:rgb(0,0,0);" transform="rotate(70.7,1839.3,2504.2)" >ParCLob</text>
<text x="913.7" y="616.9" font-size="31.2px" font-family="CMUBright-Roman" style="text-anchor:end;fill:rgb(0,0,0);" transform="rotate(57.2,913.7,616.9)" >RolOper</text>
<text x="2091.0" y="620.0" font-size="31.2px" font-family="CMUBright-Roman" style="text-anchor:start;fill:rgb(0,0,0);" transform="rotate(303.1,2091.0,620.0)" >RolOper</text>
<text x="475.1" y="1770.5" font-size="31.2px" font-family="CMUBright-Roman" style="text-anchor:end;fill:rgb(0,0,0);" transform="rotate(-14.1,475.1,1770.5)" >PoleMid</text>
<text x="2523.5" y="1775.8" font-size="31.2px" font-family="CMUBright-Roman" style="text-anchor:start;fill:rgb(0,0,0);" transform="rotate(14.4,2523.5,1775.8)" >PoleMid</text>
<text x="461.4" y="1288.1" font-size="31.2px" font-family="CMUBright-Roman" style="text-anchor:end;fill:rgb(0,0,0);" transform="rotate(12.3,461.4,1288.1)" >ParaHip</text>
<text x="2539.7" y="1293.5" font-size="31.2px" font-family="CMUBright-Roman" style="text-anchor:start;fill:rgb(0,0,0);" transform="rotate(348.0,2539.7,1293.5)" >ParaHip</text>
<text x="974.9" y="579.2" font-size="31.2px" font-family="CMUBright-Roman" style="text-anchor:end;fill:rgb(0,0,0);" transform="rotate(61.0,974.9,579.2)" >FInfOrb</text>
<text x="2029.9" y="582.0" font-size="31.2px" font-family="CMUBright-Roman" style="text-anchor:start;fill:rgb(0,0,0);" transform="rotate(299.3,2029.9,582.0)" >FInfOrb</text>
<text x="1037.2" y="546.4" font-size="31.2px" font-family="CMUBright-Roman" style="text-anchor:end;fill:rgb(0,0,0);" transform="rotate(64.8,1037.2,546.4)" >FInfTri</text>
<text x="1967.8" y="548.8" font-size="31.2px" font-family="CMUBright-Roman" style="text-anchor:start;fill:rgb(0,0,0);" transform="rotate(295.5,1967.8,548.8)" >FInfTri</text>
<text x="1089.7" y="2477.4" font-size="31.2px" font-family="CMUBright-Roman" style="text-anchor:end;fill:rgb(0,0,0);" transform="rotate(-66.6,1089.7,2477.4)" >Precun</text>
<text x="1905.2" y="2479.5" font-size="31.2px" font-family="CMUBright-Roman" style="text-anchor:start;fill:rgb(0,0,0);" transform="rotate(66.9,1905.2,2479.5)" >Precun</text>
<text x="636.7" y="2115.1" font-size="31.2px" font-family="CMUBright-Roman" style="text-anchor:end;fill:rgb(0,0,0);" transform="rotate(-34.7,636.7,2115.1)" >OcSup</text>
<text x="2360.0" y="2119.6" font-size="31.2px" font-family="CMUBright-Roman" style="text-anchor:start;fill:rgb(0,0,0);" transform="rotate(35.0,2360.0,2119.6)" >OcSup</text>
<text x="677.9" y="2169.1" font-size="31.2px" font-family="CMUBright-Roman" style="text-anchor:end;fill:rgb(0,0,0);" transform="rotate(-38.5,677.9,2169.1)" >OcMid</text>
<text x="2318.6" y="2173.4" font-size="31.2px" font-family="CMUBright-Roman" style="text-anchor:start;fill:rgb(0,0,0);" transform="rotate(38.8,2318.6,2173.4)" >OcMid</text>
<text x="442.1" y="1566.2" font-size="31.2px" font-family="CMUBright-Roman" style="text-anchor:end;fill:rgb(0,0,0);" transform="rotate(-2.8,442.1,1566.2)" >TeSup</text>
<text x="2557.6" y="1571.8" font-size="31.2px" font-family="CMUBright-Roman" style="text-anchor:start;fill:rgb(0,0,0);" transform="rotate(3.1,2557.6,1571.8)" >TeSup</text>
<text x="459.5" y="1702.3" font-size="31.2px" font-family="CMUBright-Roman" style="text-anchor:end;fill:rgb(0,0,0);" transform="rotate(-10.4,459.5,1702.3)" >TeMid</text>
<text x="2539.4" y="1707.8" font-size="31.2px" font-family="CMUBright-Roman" style="text-anchor:start;fill:rgb(0,0,0);" transform="rotate(10.7,2539.4,1707.8)" >TeMid</text>
<text x="851.0" y="2338.1" font-size="31.2px" font-family="CMUBright-Roman" style="text-anchor:end;fill:rgb(0,0,0);" transform="rotate(-51.5,851.0,2338.1)" >PaSup</text>
<text x="2144.6" y="2341.5" font-size="31.2px" font-family="CMUBright-Roman" style="text-anchor:start;fill:rgb(0,0,0);" transform="rotate(51.8,2144.6,2341.5)" >PaSup</text>
<text x="795.7" y="2292.2" font-size="31.2px" font-family="CMUBright-Roman" style="text-anchor:end;fill:rgb(0,0,0);" transform="rotate(-47.7,795.7,2292.2)" >PostC</text>
<text x="2200.1" y="2295.9" font-size="31.2px" font-family="CMUBright-Roman" style="text-anchor:start;fill:rgb(0,0,0);" transform="rotate(48.0,2200.1,2295.9)" >PostC</text>
<text x="440.0" y="1493.3" font-size="31.2px" font-family="CMUBright-Roman" style="text-anchor:end;fill:rgb(0,0,0);" transform="rotate(1.0,440.0,1493.3)" >Hesch</text>
<text x="2560.0" y="1498.9" font-size="31.2px" font-family="CMUBright-Roman" style="text-anchor:start;fill:rgb(0,0,0);" transform="rotate(359.3,2560.0,1498.9)" >Hesch</text>
<text x="536.5" y="1058.1" font-size="31.2px" font-family="CMUBright-Roman" style="text-anchor:end;fill:rgb(0,0,0);" transform="rotate(25.3,536.5,1058.1)" >CiMid</text>
<text x="2465.8" y="1063.2" font-size="31.2px" font-family="CMUBright-Roman" style="text-anchor:start;fill:rgb(0,0,0);" transform="rotate(335.0,2465.8,1063.2)" >CiMid</text>
<text x="449.6" y="1357.5" font-size="31.2px" font-family="CMUBright-Roman" style="text-anchor:end;fill:rgb(0,0,0);" transform="rotate(8.5,449.6,1357.5)" >Amyg</text>
<text x="2551.1" y="1363.0" font-size="31.2px" font-family="CMUBright-Roman" style="text-anchor:start;fill:rgb(0,0,0);" transform="rotate(351.8,2551.1,1363.0)" >Amyg</text>
<text x="1028.8" y="2449.5" font-size="31.2px" font-family="CMUBright-Roman" style="text-anchor:end;fill:rgb(0,0,0);" transform="rotate(-62.8,1028.8,2449.5)" >Angul</text>
<text x="1966.2" y="2452.0" font-size="31.2px" font-family="CMUBright-Roman" style="text-anchor:start;fill:rgb(0,0,0);" transform="rotate(63.1,1966.2,2452.0)" >Angul</text>
<text x="723.8" y="2221.8" font-size="31.2px" font-family="CMUBright-Roman" style="text-anchor:end;fill:rgb(0,0,0);" transform="rotate(-42.2,723.8,2221.8)" >OcInf</text>
<text x="2272.4" y="2225.9" font-size="31.2px" font-family="CMUBright-Roman" style="text-anchor:start;fill:rgb(0,0,0);" transform="rotate(42.5,2272.4,2225.9)" >OcInf</text>
<text x="495.1" y="1837.4" font-size="31.2px" font-family="CMUBright-Roman" style="text-anchor:end;fill:rgb(0,0,0);" transform="rotate(-17.9,495.1,1837.4)" >TeInf</text>
<text x="2503.1" y="1842.7" font-size="31.2px" font-family="CMUBright-Roman" style="text-anchor:start;fill:rgb(0,0,0);" transform="rotate(18.2,2503.1,1842.7)" >TeInf</text>
<text x="905.6" y="2377.6" font-size="31.2px" font-family="CMUBright-Roman" style="text-anchor:end;fill:rgb(0,0,0);" transform="rotate(-55.2,905.6,2377.6)" >PaInf</text>
<text x="2089.8" y="2380.7" font-size="31.2px" font-family="CMUBright-Roman" style="text-anchor:start;fill:rgb(0,0,0);" transform="rotate(55.5,2089.8,2380.7)" >PaInf</text>
<text x="1368.4" y="448.2" font-size="31.2px" font-family="CMUBright-Roman" style="text-anchor:end;fill:rgb(0,0,0);" transform="rotate(83.7,1368.4,448.2)" >FSup</text>
<text x="1637.1" y="448.9" font-size="31.2px" font-family="CMUBright-Roman" style="text-anchor:start;fill:rgb(0,0,0);" transform="rotate(276.6,1637.1,448.9)" >FSup</text>
<text x="1234.1" y="473.9" font-size="31.2px" font-family="CMUBright-Roman" style="text-anchor:end;fill:rgb(0,0,0);" transform="rotate(76.1,1234.1,473.9)" >FMid</text>
<text x="1771.3" y="475.3" font-size="31.2px" font-family="CMUBright-Roman" style="text-anchor:start;fill:rgb(0,0,0);" transform="rotate(284.2,1771.3,475.3)" >FMid</text>
<text x="1252.0" y="2530.6" font-size="31.2px" font-family="CMUBright-Roman" style="text-anchor:end;fill:rgb(0,0,0);" transform="rotate(-75.8,1252.0,2530.6)" >Caud</text>
<text x="1742.6" y="2531.9" font-size="31.2px" font-family="CMUBright-Roman" style="text-anchor:start;fill:rgb(0,0,0);" transform="rotate(76.1,1742.6,2531.9)" >Caud</text>
<text x="1440.0" y="441.7" font-size="31.2px" font-family="CMUBright-Roman" style="text-anchor:end;fill:rgb(0,0,0);" transform="rotate(87.4,1440.0,441.7)" >PreC</text>
<text x="1565.6" y="442.0" font-size="31.2px" font-family="CMUBright-Roman" style="text-anchor:start;fill:rgb(0,0,0);" transform="rotate(272.9,1565.6,442.0)" >PreC</text>
<text x="1458.9" y="2559.2" font-size="31.2px" font-family="CMUBright-Roman" style="text-anchor:end;fill:rgb(0,0,0);" transform="rotate(-87.1,1458.9,2559.2)" >Thal</text>
<text x="1535.5" y="2559.4" font-size="31.2px" font-family="CMUBright-Roman" style="text-anchor:start;fill:rgb(0,0,0);" transform="rotate(87.4,1535.5,2559.4)" >Thal</text>
<text x="660.9" y="852.4" font-size="31.2px" font-family="CMUBright-Roman" style="text-anchor:end;fill:rgb(0,0,0);" transform="rotate(38.3,660.9,852.4)" >Rect</text>
<text x="2342.5" y="856.8" font-size="31.2px" font-family="CMUBright-Roman" style="text-anchor:start;fill:rgb(0,0,0);" transform="rotate(322.0,2342.5,856.8)" >Rect</text>
<text x="509.7" y="1122.1" font-size="31.2px" font-family="CMUBright-Roman" style="text-anchor:end;fill:rgb(0,0,0);" transform="rotate(21.5,509.7,1122.1)" >Post</text>
<text x="2492.3" y="1127.3" font-size="31.2px" font-family="CMUBright-Roman" style="text-anchor:start;fill:rgb(0,0,0);" transform="rotate(338.8,2492.3,1127.3)" >Post</text>
<text x="448.4" y="1633.3" font-size="31.2px" font-family="CMUBright-Roman" style="text-anchor:end;fill:rgb(0,0,0);" transform="rotate(-6.6,448.4,1633.3)" >Pole</text>
<text x="2550.9" y="1638.8" font-size="31.2px" font-family="CMUBright-Roman" style="text-anchor:start;fill:rgb(0,0,0);" transform="rotate(6.9,2550.9,1638.8)" >Pole</text>
<text x="531.8" y="1931.6" font-size="31.2px" font-family="CMUBright-Roman" style="text-anchor:end;fill:rgb(0,0,0);" transform="rotate(-23.4,531.8,1931.6)" >Calc</text>
<text x="2465.9" y="1936.7" font-size="31.2px" font-family="CMUBright-Roman" style="text-anchor:start;fill:rgb(0,0,0);" transform="rotate(23.7,2465.9,1936.7)" >Calc</text>
<text x="598.3" y="2057.3" font-size="31.2px" font-family="CMUBright-Roman" style="text-anchor:end;fill:rgb(0,0,0);" transform="rotate(-30.9,598.3,2057.3)" >Ling</text>
<text x="2398.7" y="2062.0" font-size="31.2px" font-family="CMUBright-Roman" style="text-anchor:start;fill:rgb(0,0,0);" transform="rotate(31.2,2398.7,2062.0)" >Ling</text>
<text x="442.8" y="1423.5" font-size="31.2px" font-family="CMUBright-Roman" style="text-anchor:end;fill:rgb(0,0,0);" transform="rotate(4.8,442.8,1423.5)" >Fusi</text>
<text x="2557.6" y="1429.1" font-size="31.2px" font-family="CMUBright-Roman" style="text-anchor:start;fill:rgb(0,0,0);" transform="rotate(355.5,2557.6,1429.1)" >Fusi</text>
<text x="562.4" y="1994.5" font-size="31.2px" font-family="CMUBright-Roman" style="text-anchor:end;fill:rgb(0,0,0);" transform="rotate(-27.1,562.4,1994.5)" >Cun</text>
<text x="2435.0" y="1999.4" font-size="31.2px" font-family="CMUBright-Roman" style="text-anchor:start;fill:rgb(0,0,0);" transform="rotate(27.4,2435.0,1999.4)" >Cun</text>
<text x="568.0" y="995.1" font-size="31.2px" font-family="CMUBright-Roman" style="text-anchor:end;fill:rgb(0,0,0);" transform="rotate(29.1,568.0,995.1)" >Ant</text>
<text x="2434.7" y="1000.1" font-size="31.2px" font-family="CMUBright-Roman" style="text-anchor:start;fill:rgb(0,0,0);" transform="rotate(331.2,2434.7,1000.1)" >Ant</text>
<text x="1389.2" y="2554.2" font-size="31.2px" font-family="CMUBright-Roman" style="text-anchor:end;fill:rgb(0,0,0);" transform="rotate(-83.4,1389.2,2554.2)" >Pall</text>
<text x="1605.3" y="2554.8" font-size="31.2px" font-family="CMUBright-Roman" style="text-anchor:start;fill:rgb(0,0,0);" transform="rotate(83.7,1605.3,2554.8)" >Pall</text>
<text x="1320.0" y="2544.6" font-size="31.2px" font-family="CMUBright-Roman" style="text-anchor:end;fill:rgb(0,0,0);" transform="rotate(-79.6,1320.0,2544.6)" >Put</text>
<text x="1674.5" y="2545.5" font-size="31.2px" font-family="CMUBright-Roman" style="text-anchor:start;fill:rgb(0,0,0);" transform="rotate(79.9,1674.5,2545.5)" >Put</text>
<text x="477.8" y="1219.6" font-size="31.2px" font-family="CMUBright-Roman" style="text-anchor:end;fill:rgb(0,0,0);" transform="rotate(16.1,477.8,1219.6)" >Hip</text>
<text x="2523.7" y="1225.0" font-size="31.2px" font-family="CMUBright-Roman" style="text-anchor:start;fill:rgb(0,0,0);" transform="rotate(344.2,2523.7,1225.0)" >Hip</text>
<text x="804.2" y="700.4" font-size="31.2px" font-family="CMUBright-Roman" style="text-anchor:end;fill:rgb(0,0,0);" transform="rotate(49.6,804.2,700.4)" >Olf</text>
<text x="2200.1" y="704.1" font-size="31.2px" font-family="CMUBright-Roman" style="text-anchor:start;fill:rgb(0,0,0);" transform="rotate(310.7,2200.1,704.1)" >Olf</text>
<text x="620.3" y="908.6" font-size="31.2px" font-family="CMUBright-Roman" style="text-anchor:end;fill:rgb(0,0,0);" transform="rotate(34.5,620.3,908.6)" >Ins</text>
<text x="2382.8" y="913.3" font-size="31.2px" font-family="CMUBright-Roman" style="text-anchor:start;fill:rgb(0,0,0);" transform="rotate(325.8,2382.8,913.3)" >Ins</text>
</g>
<defs>
<pattern id="hline-sparse" width="10" height="10" patternTransform="rotate(0 0 0)" patternUnits="userSpaceOnUse"><line x1="0" y1="0" x2="10" y2="0" style="stroke:black;stroke-width:2" /></pattern>
<pattern id="checker" width="10" height="10" patternTransform="rotate(45 0 0)" patternUnits="userSpaceOnUse"><line x1="0" y1="0" x2="10" y2="0" style="stroke:black;stroke-width:5" /><line x1="0" y1="0" x2="0" y2="10" style="stroke:black;stroke-width:4" /></pattern>
<pattern id="checker" width="10" height="10" patternTransform="rotate(45 0 0)" patternUnits="userSpaceOnUse"><line x1="0" y1="0" x2="10" y2="0" style="stroke:black;stroke-width:2" /><line x1="0" y1="0" x2="0" y2="10" style="stroke:black;stroke-width:2" /></pattern>
<pattern id="vline-sparse" width="10" height="10" patternTransform="rotate(0 0 0)" patternUnits="userSpaceOnUse"><line x1="0" y1="0" x2="0" y2="10" style="stroke:black;stroke-width:2" /></pattern>
<pattern id="hline" width="10" height="10" patternTransform="rotate(0 0 0)" patternUnits="userSpaceOnUse"><line x1="0" y1="0" x2="10" y2="0" style="stroke:black;stroke-width:5" /></pattern>
<pattern id="vline" width="10" height="10" patternTransform="rotate(0 0 0)" patternUnits="userSpaceOnUse"><line x1="0" y1="0" x2="0" y2="10" style="stroke:black;stroke-width:5" /></pattern>
</defs>
</svg>
